<svg id="Layer_1" data-name="Layer 1" xmlns="http://www.w3.org/2000/svg" viewBox="0 0 100 100">
  <defs>
    <style>
      .cls-1 {
        fill: #1f4e5f;
      }
    </style>
  </defs>
  <g>
    <path class="cls-1" d="M80.47,10.88H19.53A11.64,11.64,0,0,0,8.07,22.62h0V34.37H91.93V22.62h0A11.64,11.64,0,0,0,80.47,10.88ZM22.26,27.56a4.84,4.84,0,1,1,4.83-4.84A4.84,4.84,0,0,1,22.26,27.56Zm15.12,0a4.84,4.84,0,1,1,4.83-4.84A4.84,4.84,0,0,1,37.38,27.56Z"/>
    <path class="cls-1" d="M8.07,65.63V77.38A11.64,11.64,0,0,0,19.53,89.12H80.47A11.64,11.64,0,0,0,91.93,77.38V40H8.07ZM59.31,59a2.35,2.35,0,0,1,3.75-2.83l5.34,7.11a2.36,2.36,0,0,1,0,2.78L63.1,73.57a2.35,2.35,0,0,1-3.83-2.73l4.34-6.08ZM45.38,73.93l5.28-20a2.42,2.42,0,0,1,4.68,1.23l-5.28,20A2.41,2.41,0,0,1,47.72,77a2.55,2.55,0,0,1-.61-.08A2.42,2.42,0,0,1,45.38,73.93Zm-13.3-10.2,5.34-7.48A2.35,2.35,0,1,1,41.25,59l-4.34,6.08,4.3,5.73a2.35,2.35,0,1,1-3.75,2.83l-5.34-7.11A2.36,2.36,0,0,1,32.08,63.73Z"/>
  </g>
</svg>
