<svg id="Layer_1" data-name="Layer 1" xmlns="http://www.w3.org/2000/svg" viewBox="0 0 294.13 72.85">
  <defs>
    <style>
      .cls-1, .cls-3 {
        fill: #1f4e5f;
      }

      .cls-2 {
        fill: #79a8a9;
      }

      .cls-3 {
        font-size: 46px;
        font-family: Avenir-Black, Avenir;
        font-weight: 800;
      }
    </style>
  </defs>
  <g>
    <g>
      <path class="cls-1" d="M29.61,31.58H43.07c1.44,0,1.46,0,1.65,1.41a42.16,42.16,0,0,1,.2,7.28A24.38,24.38,0,0,1,43.24,49a13,13,0,0,1-6.37,6.79A27.94,27.94,0,0,0,31,59.42l-.35.29a1.34,1.34,0,0,1-2,0,23.43,23.43,0,0,0-5.82-3.82,13.14,13.14,0,0,1-5.27-4.62,17.79,17.79,0,0,1-2.46-6.44,45.17,45.17,0,0,1-.45-11.14,10.92,10.92,0,0,1,.09-1.15c.1-.71.39-1,1.11-1Z"/>
      <path class="cls-2" d="M29.79,29.79H14.46c-1.07,0-1.37-.3-1.37-1.39a8.3,8.3,0,0,1,2.54-5.9C18,20.06,21,19.56,24.2,19.9a12.48,12.48,0,0,1,1.32.29,2.26,2.26,0,0,0,2-1.06,5.62,5.62,0,0,0,.76-2.74c0-.88,0-1.77.07-2.66,0-.71.18-.87.88-1h0c1.28-.33,1.7.14,1.76,1.54s.15,2.54.31,3.8a2.66,2.66,0,0,0,1.11,1.69,1.63,1.63,0,0,0,1.4.35,13.82,13.82,0,0,1,5-.18,8.4,8.4,0,0,1,6.8,5.46,16.56,16.56,0,0,1,.69,2.71c.21,1.08-.28,1.62-1.37,1.62l-9.88,0H29.79Zm-12.7-5.58a6.65,6.65,0,0,0,.51.63c.65.63,1.31,1.24,2,1.83a.43.43,0,0,0,.67,0c.52-.56,1.07-1.11,1.62-1.65.2-.2.17-.34,0-.5-.68-.6-1.36-1.2-2.05-1.78a.51.51,0,0,0-.44-.09A5.77,5.77,0,0,0,17.09,24.21ZM40,27.12l2.58-2.53a5.17,5.17,0,0,0-2-1.71c-.66-.36-.69-.34-1.21.22-.1.11-.22.21-.32.32l-1.22,1.36ZM35.83,24.7c-.71-.62-1.29-1.19-1.94-1.66a1.08,1.08,0,0,0-1-.1c-.72.53-1.37,1.17-2.1,1.8L33,26.8a.42.42,0,0,0,.66,0Zm-11.71,0c.71.72,1.33,1.37,2,2,.19.19.44.32.7.06.6-.59,1.21-1.17,1.8-1.77a.49.49,0,0,0,0-.45c-.7-.59-1.43-1.15-2.16-1.71a.37.37,0,0,0-.35,0C25.46,23.49,24.81,24.11,24.12,24.74ZM27.8,22l2.08,1.81,1.88-1.72-2-2.25Zm4.26,6.11A.92.92,0,0,0,32,28c-.67-.69-1.34-1.39-2-2.07-.05-.05-.28,0-.37.1-.36.35-.71.71-1.06,1.07l-1,1.07Zm2.46-.21.11.2h.54c.94,0,1.88,0,2.82,0a3.89,3.89,0,0,0,.73-.18,4.14,4.14,0,0,0-.37-.69,3.72,3.72,0,0,0-.59-.53,8.08,8.08,0,0,1-.79-.63.38.38,0,0,0-.6,0Zm-9.17.22.08-.17-2.38-2.12-2.06,2,.1.24C22.5,28.2,23.93,28.16,25.35,28.13ZM16,25.45c-.22.81-.42,1.46-.57,2.12-.09.38,0,.61.48.59s1.14,0,1.71,0H18.7l.06-.19ZM41.05,27.9l.07.2c1,0,1.9,0,2.84,0,.07,0,.2-.26.17-.36a17.13,17.13,0,0,0-.57-1.66c-.12-.3-.36-.28-.56-.09C42.34,26.61,41.7,27.26,41.05,27.9ZM21.29,22.14,23,24l1.59-1.82Zm17.14.12a7.81,7.81,0,0,0-3.5.08l1.76,1.55Z"/>
    </g>
    <text class="cls-3" transform="translate(61.26 54.74)">OAKTREE</text>
  </g>
</svg>
