<svg id="Layer_1" data-name="Layer 1" xmlns="http://www.w3.org/2000/svg" viewBox="0 0 100 100">
  <defs>
    <style>
      .cls-1 {
        fill: #1f4e5f;
      }
    </style>
  </defs>
  <g>
    <path class="cls-1" d="M72.68,27.53,67.37,10.81h-.06a6.65,6.65,0,0,0-6.68-6A6.84,6.84,0,0,0,56,6.6h0c-5.94,2.32-12.93,0-12.93,0h0a6.79,6.79,0,0,0-4.61-1.8,6.68,6.68,0,0,0-6.72,5.91h0L27.12,27.53Z"/>
    <path class="cls-1" d="M13.89,41.84h4.4v8.68a2.64,2.64,0,0,0,2.49,2.75H26V60a6.45,6.45,0,0,0,1.89,4.56l10.2,10.2a6.45,6.45,0,0,0,4.56,1.89H57.11a6.45,6.45,0,0,0,4.56-1.89l10.2-10.2A6.45,6.45,0,0,0,73.76,60V53.27H79a2.64,2.64,0,0,0,2.49-2.75V41.84H86a2.15,2.15,0,0,0,2.15-2.15V36.32A2.15,2.15,0,0,0,86,34.17H13.89a2.15,2.15,0,0,0-2.15,2.15v3.37A2.15,2.15,0,0,0,13.89,41.84Zm48.53-.79a7.07,7.07,0,1,1-7.06,7.06A7.07,7.07,0,0,1,62.42,41.05Zm-25.19,0a7.07,7.07,0,1,1-7.06,7.06A7.06,7.06,0,0,1,37.23,41.05Z"/>
    <path class="cls-1" d="M86.78,84a11.4,11.4,0,0,0-2.31-1.91c-.34-.21-3.55-1.59-3.55-1.61V70.13c0-.48-.81-.82-1.15-.95A7.78,7.78,0,0,0,72,70.41c-3,2.88-5.69,6.32-8.48,9.44C62,81.57,60,81.37,57.82,81.58c-1.29.13-2.59.19-3.88.26V95.2H78.13c3.63,0,7.26,0,10.89,0C89.17,91.36,89.55,87,86.78,84Z"/>
    <path class="cls-1" d="M42.18,81.58c-2.14-.21-4.16,0-5.7-1.73C33.69,76.73,31,73.29,28,70.41a7.78,7.78,0,0,0-7.77-1.23c-.34.13-1.15.47-1.15.95V80.48s-3.21,1.4-3.55,1.61A11.4,11.4,0,0,0,13.22,84c-2.77,3-2.39,7.36-2.24,11.2,3.63,0,7.26,0,10.89,0H46.06V81.84C44.77,81.77,43.47,81.71,42.18,81.58Z"/>
  </g>
</svg>
